# Made in Blockbench 5.0.3
mtllib Room.mtl

o cylinder
v 0.28593625 0.5 1.4375
v 0 0 0
v 0.28593625 0 1.4375
v 0.814278125 0 1.21865375
v 0.814278125 0.5 1.21865375
v 1.21865375 0 0.814278125
v 1.21865375 0.5 0.814278125
v 1.4375 0 0.28593625
v 1.4375 0.5 0.28593625
v 1.4375 0 -0.28593625
v 1.4375 0.5 -0.28593625
v 1.21865375 0 -0.814278125
v 1.21865375 0.5 -0.814278125
v 0.814278125 0 -1.21865375
v 0.814278125 0.5 -1.21865375
v 0.28593625 0 -1.4375
v 0.28593625 0.5 -1.4375
v -0.28593625 0 -1.4375
v -0.28593625 0.5 -1.4375
v -0.814278125 0 -1.21865375
v -0.814278125 0.5 -1.21865375
v -1.21865375 0 -0.814278125
v -1.21865375 0.5 -0.814278125
v -1.4375 0 -0.28593625
v -1.4375 0.5 -0.28593625
v -1.4375 0 0.28593625
v -1.4375 0.5 0.28593625
v -1.21865375 0 0.814278125
v -1.21865375 0.5 0.814278125
v -0.814278125 0 1.21865375
v -0.814278125 0.5 1.21865375
v -0.28593625 0 1.4375
v -0.28593625 0.5 1.4375
v 1.328125 0.5 -0.264180625
v 1.12593 0.5 -0.7523225
v 0.7523225 0.5 -1.12593
v 0.264180625 0.5 -1.328125
v -0.264180625 0.5 -1.328125
v -0.7523225 0.5 -1.12593
v -1.12593 0.5 -0.7523225
v -1.328125 0.5 -0.264180625
v -1.328125 0.5 0.264180625
v -1.12593 0.5 0.7523225
v -0.7523225 0.5 1.12593
v -0.264180625 0.5 1.328125
v 1.328125 0.5 0.264180625
v 1.12593 0.5 0.7523225
v 0.7523225 0.5 1.12593
v 0.264180625 0.5 1.328125
v 1.328125 0.09375 -0.264180625
v 1.12593 0.09375 -0.7523225
v 0 0.09375 0
v 0.7523225 0.09375 -1.12593
v 0.264180625 0.09375 -1.328125
v -0.264180625 0.09375 -1.328125
v -0.7523225 0.09375 -1.12593
v -1.12593 0.09375 -0.7523225
v -1.328125 0.09375 -0.264180625
v -1.328125 0.09375 0.264180625
v -1.12593 0.09375 0.7523225
v -0.7523225 0.09375 1.12593
v -0.264180625 0.09375 1.328125
v 1.328125 0.09375 0.264180625
v 1.12593 0.09375 0.7523225
v 0.7523225 0.09375 1.12593
v 0.264180625 0.09375 1.328125
vt 0.509795625 0.8049125
vt 0.470990625 1
vt 0 0.8049125
vt 0 0.5
vt 0.1989125 0.5
vt 0.1989125 1
vt 0 1
vt 0 -0.09924624999999998
vt 0.42066375 -0.015567499999999956
vt 0 1
vt 0.509795625 0.804904375
vt 0.4709875 1
vt 0 0.804904375
vt 0 0.5
vt 0.1989125 0.5
vt 0.1989125 1
vt 0 1
vt 0 -0.0992431250000001
vt 0.420663125 -0.015567499999999956
vt 0 1
vt 0.509795625 0.8049125
vt 0.47099125 1
vt 0 0.8049125
vt 0 0.5
vt 0.1989125 0.5
vt 0.1989125 1
vt 0 1
vt 0 -0.0992431250000001
vt 0.420665 -0.01557062500000006
vt 0 1
vt 0.5 0.8010875
vt 0.5 1
vt 0 0.90054375
vt 0 0.5
vt 0.1989125 0.5
vt 0.1989125 1
vt 0 1
vt 1.078125 0.5710999999999999
vt 1.078125 1
vt 0 0.78555
vt 0 0.490204375
vt 0.1950875 0.529009375
vt 0 1
vt 0 0.5
vt 0.1989125 0.5
vt 0.1989125 1
vt 0 1
vt 1.09924625 0.57933625
vt 1.0155675 1
vt 0 0.57933625
vt 0 0.490204375
vt 0.195095625 0.5290125
vt 0 1
vt 0 0.5
vt 0.1989125 0.5
vt 0.1989125 1
vt 0 1
vt 1.099243125 0.579336875
vt 1.0155675 1
vt 0 0.579336875
vt 0 0.490204375
vt 0.1950875 0.52900875
vt 0 1
vt 0 0.5
vt 0.1989125 0.5
vt 0.1989125 1
vt 0 1
vt 1.099243125 0.5793349999999999
vt 1.015570625 1
vt 0 0.5793349999999999
vt 0 0.5
vt 0.1989125 0.5
vt 0.09945625 1
vt 0 0.5
vt 0.1989125 0.5
vt 0.1989125 1
vt 0 1
vt 0.4289 1
vt 0 1
vt 0.21445 -0.078125
vt 0 1
vt 0.038805 0.8049125
vt 0.509795625 1
vt 0 0.5
vt 0.1989125 0.5
vt 0.1989125 1
vt 0 1
vt 0.42066375 1
vt 0 0.91632125
vt 0.42066375 -0.09924624999999998
vt 0 1
vt 0.038808125 0.804904375
vt 0.509795625 1
vt 0 0.5
vt 0.1989125 0.5
vt 0.1989125 1
vt 0 1
vt 0.420663125 1
vt 0 0.916324375
vt 0.420663125 -0.0992431250000001
vt 0 1
vt 0.038804375 0.8049125
vt 0.509795625 1
vt 0 0.5
vt 0.1989125 0.5
vt 0.1989125 1
vt 0 1
vt 0.420665 1
vt 0 0.9163275
vt 0.420665 -0.0992431250000001
vt 0 1
vt 0 0.8010875
vt 0.5 0.90054375
vt 0 0.5
vt 0.1989125 0.5
vt 0.1989125 1
vt 0 1
vt 0 1
vt 0 0.5710999999999999
vt 1.078125 0.78555
vt 0.1950875 1
vt 0 0.961195
vt 0.1950875 0.490204375
vt 0 0.5
vt 0.1989125 0.5
vt 0.1989125 1
vt 0 1
vt 0 1
vt 0.08367875 0.57933625
vt 1.09924625 1
vt 0.195095625 1
vt 0 0.961191875
vt 0.195095625 0.490204375
vt 0 0.5
vt 0.1989125 0.5
vt 0.1989125 1
vt 0 1
vt 0 1
vt 0.083675625 0.579336875
vt 1.099243125 1
vt 0.1950875 1
vt 0 0.961195625
vt 0.1950875 0.490204375
vt 0 0.5
vt 0.1989125 0.5
vt 0.1989125 1
vt 0 1
vt 0 1
vt 0.0836725 0.5793349999999999
vt 1.099243125 1
vt 0.1989125 1
vt 0 1
vt 0.09945625 0.5
vt 0 0.5
vt 0.1989125 0.5
vt 0.1989125 1
vt 0 1
vt 0 -0.078125
vt 0.4289 -0.078125
vt 0.21445 1
vt 0.3125 0.928515
vt 0.3125 0.499609375
vt 0.671875625 0.42812625000000004
vt 0.6718825 1
vt 0.3125 0.928515625
vt 0.3125 0.49961124999999995
vt 0.6718825 0.4281275
vt 0.6718825 1
vt 0.3125 0.928516875
vt 0.3125 0.49961124999999995
vt 0.6718825 0.42812625000000004
vt 0.671875625 1
vt 0.071485 0.6406175000000001
vt 0.500390625 0.6406175000000001
vt 0.57187375 0.999993125
vt 0 1
vt 0.0714875 0.640625
vt 0.5003875 0.640625
vt 0.571875 1
vt 0 1
vt 0.071484375 0.6406175000000001
vt 0.50038875 0.6406175000000001
vt 0.5718725 1
vt 0 1
vt 0.071483125 0.6406175000000001
vt 0.50038875 0.6406175000000001
vt 0.57187375 1
vt 0 0.999993125
vt 0.359375 0.4996125
vt 0.359375 0.9285125
vt 0 1
vt 0 0.428125
vt 0.3593825 0.49961124999999995
vt 0.3593825 0.928516875
vt 0.000006875 1
vt 0 0.42812625000000004
vt 0.3593825 0.49961124999999995
vt 0.3593825 0.928515625
vt 0 1
vt 0 0.4281275
vt 0.3593825 0.499609375
vt 0.3593825 0.928515
vt 0 1
vt 0.000006875 0.42812625000000004
vt 0.3125 0.9285125
vt 0.3125 0.4996125
vt 0.671875 0.428125
vt 0.671875 1
vt 0.500390625 0.6875
vt 0.071485 0.6875
vt 0 0.32811749999999995
vt 0.57187375 0.328124375
vt 0.50038875 0.6875
vt 0.071484375 0.6875
vt 0 0.32811749999999995
vt 0.5718725 0.32811749999999995
vt 0.50038875 0.6875
vt 0.071483125 0.6875
vt 0 0.328124375
vt 0.57187375 0.32811749999999995
vt 0.5003875 0.6875
vt 0.0714875 0.6875
vt 0 0.328125
vt 0.571875 0.328125
vt 0.25 0.875
vt 0.7783625 0.875
vt 0.7783625 0.9375
vt 0.25 0.9375
vt 0.25 0.875
vt 0.7783625 0.875
vt 0.7783625 0.9375
vt 0.25 0.9375
vt 0.25 0.875
vt 0.7783625 0.875
vt 0.7783625 0.9375
vt 0.25 0.9375
vt 0 0.9375
vt 0.5283625 0.9375
vt 0.5283625 1
vt 0 1
vt 0 0.9375
vt 0.5283625 0.9375
vt 0.5283625 1
vt 0 1
vt 0 0.9375
vt 0.5283625 0.9375
vt 0.5283625 1
vt 0 1
vt 0 0.9375
vt 0.5283625 0.9375
vt 0.5283625 1
vt 0 1
vt 0 0.875
vt 0.5283625 0.875
vt 0.5283625 0.9375
vt 0 0.9375
vt 0 0.875
vt 0.5283625 0.875
vt 0.5283625 0.9375
vt 0 0.9375
vt 0 0.875
vt 0.5283625 0.875
vt 0.5283625 0.9375
vt 0 0.9375
vt 0 0.875
vt 0.5283625 0.875
vt 0.5283625 0.9375
vt 0 0.9375
vt 0.3125 0.875
vt 0.8408625 0.875
vt 0.8408625 0.9375
vt 0.3125 0.9375
vt 0 0.4375
vt 0.5283625 0.4375
vt 0.5283625 0.5
vt 0 0.5
vt 0 0.4375
vt 0.5283625 0.4375
vt 0.5283625 0.5
vt 0 0.5
vt 0 0.4375
vt 0.5283625 0.4375
vt 0.5283625 0.5
vt 0 0.5
vt 0 0.4375
vt 0.5283625 0.4375
vt 0.5283625 0.5
vt 0 0.5
vn 0 -1 0
vn 0.3826832529676983 0 0.923879606820099
vn 0 1 0
vn 0 -1 0
vn 0.7071067811865476 0 0.7071067811865476
vn 0 1 0
vn 0 -1 0
vn 0.923879606820099 0 0.3826832529676983
vn 0 1 0
vn 0 -1 0
vn 1 0 0
vn 0 1 0
vn 0 -1 0
vn 0.923879606820099 0 -0.3826832529676983
vn 0 1 0
vn 0 -1 0
vn 0.7071067811865476 0 -0.7071067811865476
vn 0 1 0
vn 0 -1 0
vn 0.3826832529676983 0 -0.923879606820099
vn 0 1 0
vn 0 -1 0
vn 0 0 -1
vn 0 1 0
vn 0 -1 0
vn -0.3826832529676983 0 -0.923879606820099
vn 0 1 0
vn 0 -1 0
vn -0.7071067811865476 0 -0.7071067811865476
vn 0 1 0
vn 0 -1 0
vn -0.923879606820099 0 -0.3826832529676983
vn 0 1 0
vn 0 -1 0
vn -1 0 0
vn 0 1 0
vn 0 -1 0
vn -0.923879606820099 0 0.3826832529676983
vn 0 1 0
vn 0 -1 0
vn -0.7071067811865476 0 0.7071067811865476
vn 0 1 0
vn 0 -1 0
vn -0.3826832529676983 0 0.923879606820099
vn 0 1 0
vn 0 -1 0
vn 0 0 1
vn 0 1 0
vn 0 1 0
vn 0 1 0
vn 0 1 0
vn 0 1 0
vn 0 1 0
vn 0 1 0
vn 0 1 0
vn 0 1 0
vn 0 1 0
vn 0 1 0
vn 0 1 0
vn 0 1 0
vn 0 1 0
vn 0 1 0
vn 0 1 0
vn 0 1 0
vn 0.9238795224654743 0 -0.38268345661782543
vn 0.7071067811865476 0 -0.7071067811865476
vn 0.38268345661782543 0 -0.9238795224654743
vn -0.38268345661782543 0 -0.9238795224654743
vn 0 0 -1
vn -0.7071067811865476 0 -0.7071067811865476
vn -0.9238795224654743 0 -0.38268345661782543
vn -1 0 0
vn -0.9238795224654743 0 0.38268345661782543
vn -0.7071067811865476 0 0.7071067811865476
vn -0.38268345661782543 0 0.9238795224654743
vn 1 0 0
vn 0.9238795224654743 0 0.38268345661782543
vn 0.7071067811865476 0 0.7071067811865476
vn 0.38268345661782543 0 0.9238795224654743
vn 0 0 1
usemtl none
f 4/1/1 3/2/1 2/3/1
f 3/4/2 4/5/2 5/6/2 1/7/2
f 66/8/3 65/9/3 52/10/3
f 6/11/4 4/12/4 2/13/4
f 4/14/5 6/15/5 7/16/5 5/17/5
f 65/18/6 64/19/6 52/20/6
f 8/21/7 6/22/7 2/23/7
f 6/24/8 8/25/8 9/26/8 7/27/8
f 64/28/9 63/29/9 52/30/9
f 10/31/10 8/32/10 2/33/10
f 8/34/11 10/35/11 11/36/11 9/37/11
f 63/38/12 50/39/12 52/40/12
f 12/41/13 10/42/13 2/43/13
f 10/44/14 12/45/14 13/46/14 11/47/14
f 50/48/15 51/49/15 52/50/15
f 14/51/16 12/52/16 2/53/16
f 12/54/17 14/55/17 15/56/17 13/57/17
f 51/58/18 53/59/18 52/60/18
f 16/61/19 14/62/19 2/63/19
f 14/64/20 16/65/20 17/66/20 15/67/20
f 53/68/21 54/69/21 52/70/21
f 18/71/22 16/72/22 2/73/22
f 16/74/23 18/75/23 19/76/23 17/77/23
f 54/78/24 55/79/24 52/80/24
f 20/81/25 18/82/25 2/83/25
f 18/84/26 20/85/26 21/86/26 19/87/26
f 55/88/27 56/89/27 52/90/27
f 22/91/28 20/92/28 2/93/28
f 20/94/29 22/95/29 23/96/29 21/97/29
f 56/98/30 57/99/30 52/100/30
f 24/101/31 22/102/31 2/103/31
f 22/104/32 24/105/32 25/106/32 23/107/32
f 57/108/33 58/109/33 52/110/33
f 26/111/34 24/112/34 2/113/34
f 24/114/35 26/115/35 27/116/35 25/117/35
f 58/118/36 59/119/36 52/120/36
f 28/121/37 26/122/37 2/123/37
f 26/124/38 28/125/38 29/126/38 27/127/38
f 59/128/39 60/129/39 52/130/39
f 30/131/40 28/132/40 2/133/40
f 28/134/41 30/135/41 31/136/41 29/137/41
f 60/138/42 61/139/42 52/140/42
f 32/141/43 30/142/43 2/143/43
f 30/144/44 32/145/44 33/146/44 31/147/44
f 61/148/45 62/149/45 52/150/45
f 3/151/46 32/152/46 2/153/46
f 32/154/47 3/155/47 1/156/47 33/157/47
f 62/158/48 66/159/48 52/160/48
f 35/161/49 34/162/49 11/163/49 13/164/49
f 36/165/50 35/166/50 13/167/50 15/168/50
f 37/169/51 36/170/51 15/171/51 17/172/51
f 39/173/52 38/174/52 19/175/52 21/176/52
f 38/177/53 37/178/53 17/179/53 19/180/53
f 40/181/54 39/182/54 21/183/54 23/184/54
f 41/185/55 40/186/55 23/187/55 25/188/55
f 42/189/56 41/190/56 25/191/56 27/192/56
f 43/193/57 42/194/57 27/195/57 29/196/57
f 44/197/58 43/198/58 29/199/58 31/200/58
f 45/201/59 44/202/59 31/203/59 33/204/59
f 34/205/60 46/206/60 9/207/60 11/208/60
f 46/209/61 47/210/61 7/211/61 9/212/61
f 47/213/62 48/214/62 5/215/62 7/216/62
f 48/217/63 49/218/63 1/219/63 5/220/63
f 49/221/64 45/222/64 33/223/64 1/224/64
f 50/225/65 51/226/65 35/227/65 34/228/65
f 51/229/66 53/230/66 36/231/66 35/232/66
f 53/233/67 54/234/67 37/235/67 36/236/67
f 55/237/68 56/238/68 39/239/68 38/240/68
f 54/241/69 55/242/69 38/243/69 37/244/69
f 56/245/70 57/246/70 40/247/70 39/248/70
f 57/249/71 58/250/71 41/251/71 40/252/71
f 58/253/72 59/254/72 42/255/72 41/256/72
f 59/257/73 60/258/73 43/259/73 42/260/73
f 60/261/74 61/262/74 44/263/74 43/264/74
f 61/265/75 62/266/75 45/267/75 44/268/75
f 63/269/76 50/270/76 34/271/76 46/272/76
f 64/273/77 63/274/77 46/275/77 47/276/77
f 65/277/78 64/278/78 47/279/78 48/280/78
f 66/281/79 65/282/79 48/283/79 49/284/79
f 62/285/80 66/286/80 49/287/80 45/288/80